HIERARCHY
ROOT Hips
{
    OFFSET   0.000000   0.000000   0.000000
    CHANNELS 6 Xposition Yposition Zposition Zrotation Xrotation Yrotation
    JOINT Chest
    {
        OFFSET   0.000000   8.007230   0.000000
        CHANNELS 3 Zrotation Xrotation Yrotation
        JOINT Chest2
        {
            OFFSET   0.000000  22.077100   0.000000
            CHANNELS 3 Zrotation Xrotation Yrotation
            JOINT Neck
            {
                OFFSET   0.000000  23.254800   0.000000
                CHANNELS 3 Zrotation Xrotation Yrotation
                JOINT Head
                {
                    OFFSET   0.000010  14.370000   1.956600
                    CHANNELS 3 Zrotation Xrotation Yrotation
                    End Site
                    {
                        OFFSET   0.000000  19.566000   0.000000
                    }
                }
            }
            JOINT LeftCollar
            {
                OFFSET   3.911900  19.017000  -0.467062
                CHANNELS 3 Zrotation Xrotation Yrotation
                JOINT LeftShoulder
                {
                    OFFSET  10.383700   0.000000   0.000000
                    CHANNELS 3 Zrotation Xrotation Yrotation
                    JOINT LeftElbow
                    {
                        OFFSET  26.662100   0.001193   0.000835
                        CHANNELS 3 Zrotation Xrotation Yrotation
                        JOINT LeftWrist
                        {
                            OFFSET  28.869000  -0.000058  -0.000075
                            CHANNELS 3 Zrotation Xrotation Yrotation
                            JOINT LeftFinger0
                            {
                                OFFSET   2.044660  -2.323460   3.252850
                                CHANNELS 3 Zrotation Xrotation Yrotation
                                JOINT LeftFinger01
                                {
                                    OFFSET   3.088130   0.000000   0.000000
                                    CHANNELS 3 Zrotation Xrotation Yrotation
                                    JOINT LeftFinger02
                                    {
                                        OFFSET   2.639450   0.000000   0.000000
                                        CHANNELS 3 Zrotation Xrotation Yrotation
                                        End Site
                                        {
                                            OFFSET   2.582190   0.000000   0.000000
                                        }
                                    }
                                }
                            }
                            JOINT LeftFinger1
                            {
                                OFFSET   8.364480   0.000000   3.252850
                                CHANNELS 3 Zrotation Xrotation Yrotation
                                JOINT LeftFinger11
                                {
                                    OFFSET   4.646920   0.000000   0.000000
                                    CHANNELS 3 Zrotation Xrotation Yrotation
                                    JOINT LeftFinger12
                                    {
                                        OFFSET   2.323460   0.000000   0.000000
                                        CHANNELS 3 Zrotation Xrotation Yrotation
                                        End Site
                                        {
                                            OFFSET   2.273050   0.000000   0.000000
                                        }
                                    }
                                }
                            }
                            JOINT LeftFinger2
                            {
                                OFFSET   8.364490   0.000016   1.078090
                                CHANNELS 3 Zrotation Xrotation Yrotation
                                JOINT LeftFinger21
                                {
                                    OFFSET   5.111620   0.000000   0.000000
                                    CHANNELS 3 Zrotation Xrotation Yrotation
                                    JOINT LeftFinger22
                                    {
                                        OFFSET   2.788150   0.000012   0.000000
                                        CHANNELS 3 Zrotation Xrotation Yrotation
                                        End Site
                                        {
                                            OFFSET   2.727660   0.000000   0.000000
                                        }
                                    }
                                }
                            }
                            JOINT LeftFinger3
                            {
                                OFFSET   7.899780   0.000014  -1.078090
                                CHANNELS 3 Zrotation Xrotation Yrotation
                                JOINT LeftFinger31
                                {
                                    OFFSET   4.646930   0.000000   0.000000
                                    CHANNELS 3 Zrotation Xrotation Yrotation
                                    JOINT LeftFinger32
                                    {
                                        OFFSET   2.323470   0.000000   0.000000
                                        CHANNELS 3 Zrotation Xrotation Yrotation
                                        End Site
                                        {
                                            OFFSET   2.273050   0.000000   0.000000
                                        }
                                    }
                                }
                            }
                            JOINT LeftFinger4
                            {
                                OFFSET   7.435090   0.000000  -3.252850
                                CHANNELS 3 Zrotation Xrotation Yrotation
                                JOINT LeftFinger41
                                {
                                    OFFSET   3.717550   0.000000   0.000000
                                    CHANNELS 3 Zrotation Xrotation Yrotation
                                    JOINT LeftFinger42
                                    {
                                        OFFSET   1.858770   0.000000   0.000000
                                        CHANNELS 3 Zrotation Xrotation Yrotation
                                        End Site
                                        {
                                            OFFSET   1.818440   0.000000   0.000000
                                        }
                                    }
                                }
                            }
                        }
                    }
                }
            }
            JOINT RightCollar
            {
                OFFSET  -3.911900  19.017000  -0.467063
                CHANNELS 3 Zrotation Xrotation Yrotation
                JOINT RightShoulder
                {
                    OFFSET -10.383700   0.000023   0.000000
                    CHANNELS 3 Zrotation Xrotation Yrotation
                    JOINT RightElbow
                    {
                        OFFSET -26.662100   0.001246   0.001011
                        CHANNELS 3 Zrotation Xrotation Yrotation
                        JOINT RightWrist
                        {
                            OFFSET -28.869000  -0.000026  -0.000078
                            CHANNELS 3 Zrotation Xrotation Yrotation
                            JOINT RightFinger0
                            {
                                OFFSET  -2.044660  -2.323490   3.252850
                                CHANNELS 3 Zrotation Xrotation Yrotation
                                JOINT RightFinger01
                                {
                                    OFFSET  -3.088130   0.000000   0.000000
                                    CHANNELS 3 Zrotation Xrotation Yrotation
                                    JOINT RightFinger02
                                    {
                                        OFFSET  -2.639460   0.000000   0.000000
                                        CHANNELS 3 Zrotation Xrotation Yrotation
                                        End Site
                                        {
                                            OFFSET  -2.582190   0.000000   0.000000
                                        }
                                    }
                                }
                            }
                            JOINT RightFinger1
                            {
                                OFFSET  -8.364480   0.000000   3.252850
                                CHANNELS 3 Zrotation Xrotation Yrotation
                                JOINT RightFinger11
                                {
                                    OFFSET  -4.646920   0.000000   0.000000
                                    CHANNELS 3 Zrotation Xrotation Yrotation
                                    JOINT RightFinger12
                                    {
                                        OFFSET  -2.323470   0.000000   0.000000
                                        CHANNELS 3 Zrotation Xrotation Yrotation
                                        End Site
                                        {
                                            OFFSET  -2.273050   0.000000   0.000000
                                        }
                                    }
                                }
                            }
                            JOINT RightFinger2
                            {
                                OFFSET  -8.364480   0.000000   1.078090
                                CHANNELS 3 Zrotation Xrotation Yrotation
                                JOINT RightFinger21
                                {
                                    OFFSET  -5.111620   0.000000   0.000000
                                    CHANNELS 3 Zrotation Xrotation Yrotation
                                    JOINT RightFinger22
                                    {
                                        OFFSET  -2.788160   0.000000   0.000000
                                        CHANNELS 3 Zrotation Xrotation Yrotation
                                        End Site
                                        {
                                            OFFSET  -2.727660   0.000000   0.000000
                                        }
                                    }
                                }
                            }
                            JOINT RightFinger3
                            {
                                OFFSET  -7.899780   0.000000  -1.078090
                                CHANNELS 3 Zrotation Xrotation Yrotation
                                JOINT RightFinger31
                                {
                                    OFFSET  -4.646930   0.000000   0.000000
                                    CHANNELS 3 Zrotation Xrotation Yrotation
                                    JOINT RightFinger32
                                    {
                                        OFFSET  -2.323470   0.000000   0.000000
                                        CHANNELS 3 Zrotation Xrotation Yrotation
                                        End Site
                                        {
                                            OFFSET  -2.273050   0.000000   0.000000
                                        }
                                    }
                                }
                            }
                            JOINT RightFinger4
                            {
                                OFFSET  -7.435090   0.000000  -3.252850
                                CHANNELS 3 Zrotation Xrotation Yrotation
                                JOINT RightFinger41
                                {
                                    OFFSET  -3.717550   0.000000   0.000000
                                    CHANNELS 3 Zrotation Xrotation Yrotation
                                    JOINT RightFinger42
                                    {
                                        OFFSET  -1.858760   0.000000   0.000000
                                        CHANNELS 3 Zrotation Xrotation Yrotation
                                        End Site
                                        {
                                            OFFSET  -1.818440   0.000000   0.000000
                                        }
                                    }
                                }
                            }
                        }
                    }
                }
            }
        }
    }
    JOINT LeftHip
    {
        OFFSET   9.783010   0.000000   0.000000
        CHANNELS 3 Zrotation Xrotation Yrotation
        JOINT LeftKnee
        {
            OFFSET   0.000073 -41.789100   0.001749
            CHANNELS 3 Zrotation Xrotation Yrotation
            JOINT LeftAnkle
            {
                OFFSET   0.000111 -41.133200  -0.000179
                CHANNELS 3 Zrotation Xrotation Yrotation
                JOINT LeftToe
                {
                    OFFSET   0.000000  -6.358960  14.674500
                    CHANNELS 3 Zrotation Xrotation Yrotation
                    End Site
                    {
                        OFFSET   0.000000   0.000000   3.913200
                    }
                }
            }
        }
    }
    JOINT RightHip
    {
        OFFSET  -9.783010   0.000000   0.000000
        CHANNELS 3 Zrotation Xrotation Yrotation
        JOINT RightKnee
        {
            OFFSET   0.000424 -41.789200   0.005205
            CHANNELS 3 Zrotation Xrotation Yrotation
            JOINT RightAnkle
            {
                OFFSET   0.000000 -41.133200  -0.000155
                CHANNELS 3 Zrotation Xrotation Yrotation
                JOINT RightToe
                {
                    OFFSET   0.000000  -6.358960  14.674500
                    CHANNELS 3 Zrotation Xrotation Yrotation
                    End Site
                    {
                        OFFSET   0.000000   0.000000   3.913200
                    }
                }
            }
        }
    }
}
MOTION
Frames: 4
Frame Time:   0.016667
  3.338260  89.252800  -1.030210  -9.406640 -18.616000 -13.994100   1.160600  10.878200   2.008990   1.979010  21.789400   3.897290   3.224290  -0.168925   0.008307   5.297100  -0.339127  14.957400  -2.761810  -4.174310  -2.945630 -67.499500  20.531300  -3.601410  -3.665300  -6.048390 -16.983000  20.355800 -16.200000   9.220730  43.172800  39.448700 -71.316900 -31.473100  -0.001329  -0.000636 -10.736500  -0.002588  -0.001498 -33.725700   6.686650  -9.895160 -28.067800   0.000738   0.003171 -19.647500   0.000649   0.000418 -29.931200  -1.035880   1.797850 -44.921000  -0.000075  -0.001078 -29.917400   0.001148  -0.002335 -30.390600  -1.050230   1.789480 -45.610300  -0.000541  -0.002402 -30.376500  -0.011492   0.001594 -35.680000  -1.210810   1.684990 -53.546500  -0.002329  -0.001351 -35.662000  -0.001707   0.000761   6.072450  -0.996577   6.347640  33.136100 -13.992200  19.609200 -21.748400  -0.745883  19.111100 -13.757900  24.607300  -5.492750 -46.567400  26.389900  56.222200   3.437140   0.001028   0.000000  -3.281440  -0.000493  -0.000342   8.270820   0.164223   1.132260   6.768640  -0.000292   0.000000   4.738040  -0.000165  -0.005331   9.693750   0.192373   1.127830   9.695980   0.000428   0.003297   6.457510  -0.000111  -0.005476   2.491240   0.049103   1.143350   2.492030   0.000271  -0.001986   1.659690   0.000000  -0.002371  16.185800  -0.632937  -2.178200  24.297000  -0.000370   0.006217  16.181800  -0.008128   0.001860   2.315340  22.867300   4.049080   0.655703   0.053621   7.719190   0.265116  -4.583260   9.152760   0.000000   0.000000  -0.000000   3.281430  14.808400  -6.729610  -4.792400  11.040600  -4.914160   4.815420  -5.608450   9.109630   0.000000   0.000000   0.000000
  3.312500  89.264000  -1.012380  -9.375440 -18.458300 -13.932400   1.180060  10.756900   1.957380   2.031530  21.546600   3.787530   3.178200  -0.143467   0.007102   5.221390  -0.287939  14.772700  -2.831360  -4.076460  -2.922170 -67.516800  20.397500  -3.756350  -3.490710  -5.978140 -17.040500  20.551500 -16.197300   9.369260  43.227600  39.560900 -71.559500 -31.512700  -0.001325  -0.000633 -10.756300  -0.002585  -0.001503 -33.847400   6.714690  -9.892840 -28.169300   0.000733   0.003169 -19.718600   0.000644   0.000476 -30.001800  -1.026170   1.775960 -45.026500  -0.000074  -0.001079 -29.987700   0.001141  -0.002334 -30.453300  -1.040190   1.767780 -45.704200  -0.000541  -0.002391 -30.439000  -0.011427   0.001592 -35.744900  -1.199150   1.664040 -53.643200  -0.002327  -0.001348 -35.726400  -0.001707   0.000749   6.082740  -0.920331   6.388670  33.057000 -13.711300  19.412100 -21.863100  -0.634807  19.239800 -13.775700  24.588400  -5.384140 -46.452200  26.156600  55.933700   3.701370   0.001159  -0.000000  -3.149320  -0.000309  -0.000733   8.381900   0.165331   1.120710   6.859430  -0.000443  -0.000468   4.801600  -0.000293  -0.005183   9.803510   0.193187   1.116300   9.805630   0.000352   0.003066   6.530540  -0.000272  -0.005316   2.733520   0.055074   1.131280   2.734170   0.000198  -0.002498   1.820960   0.000000  -0.002550  16.374900  -0.649097  -2.212690  24.581700  -0.000623   0.006427  16.371400  -0.008753   0.002404   2.387760  22.724000   4.043450   0.609728   0.043100   7.826000   0.262060  -4.618120   8.964480   0.000000   0.000000   0.000000   3.338790  14.739200  -6.682880  -4.761580  10.851000  -5.022560   4.789400  -5.519360   9.104800   0.000000   0.000000  -0.000000
  3.285750  89.275300  -0.996853  -9.322760 -18.303100 -13.819700   1.198240  10.628400   1.901410   2.085100  21.289500   3.669370   3.124650  -0.111525   0.006097   5.133370  -0.223698  14.599100  -2.905840  -3.961450  -2.903990 -67.571500  20.320000  -3.932940  -3.319830  -5.830220 -17.072600  20.753800 -16.192900   9.478960  43.180000  39.631700 -71.731100 -31.573800  -0.001321  -0.000628 -10.786900  -0.002581  -0.001508 -33.991500   6.751960  -9.891560 -28.289800   0.000716   0.003167 -19.802900   0.000627   0.000532 -30.085800  -1.016990   1.754250 -45.152100  -0.000073  -0.001080 -30.071300   0.001119  -0.002333 -30.535600  -1.030730   1.746230 -45.827100  -0.000541  -0.002357 -30.520800  -0.011359   0.001591 -35.861000  -1.188460   1.642900 -53.817100  -0.002326  -0.001346 -35.842200  -0.001708   0.000711   6.106480  -0.818187   6.437220  32.978600 -13.377300  19.165100 -21.991200  -0.618482  19.382600 -13.786800  24.431100  -5.319270 -46.339600  25.920600  55.647800   3.944990   0.001241  -0.000000  -3.027510  -0.000212  -0.001133   8.556950   0.166438   1.109170   7.002390  -0.000916  -0.000948   4.901670  -0.000679  -0.005024   9.970470   0.194001   1.104780   9.972270   0.000115   0.002822   6.641530  -0.000760  -0.005156   3.133780   0.060296   1.119220   3.134270   0.000000  -0.003020   2.087420   0.000000  -0.002741  16.626900  -0.677232  -2.264950  24.960500  -0.001424   0.006662  16.623700  -0.009391   0.002906   2.449180  22.562700   4.029150   0.571310   0.039193   7.924990   0.251851  -4.646850   8.769750   0.000000   0.000000  -0.000000   3.395630  14.673200  -6.629530  -4.731140  10.660800  -5.144980   4.762150  -5.438540   9.079440  -0.000000   0.000000   0.000000
  3.260280  89.286200  -0.982791  -9.261720 -18.146400 -13.687400   1.217300  10.496000   1.848250   2.138240  21.024600   3.557130   3.068320  -0.070180   0.005323   5.040640  -0.140518  14.425900  -2.987660  -3.834070  -2.898950 -67.603000  20.313300  -4.129870  -3.173110  -5.628240 -17.108400  20.822200 -16.132000   9.518640  43.086400  39.621000 -71.885700 -31.619900  -0.001323  -0.000624 -10.809900  -0.002590  -0.001504 -34.141800   6.796490  -9.903400 -28.415700  -0.005678   0.003170 -19.891000  -0.004570   0.000583 -30.178100  -1.009270   1.735450 -45.290200  -0.000072  -0.001079 -30.163300  -0.005880  -0.002333 -30.625300  -1.022790   1.727530 -45.961400  -0.000538   0.003822 -30.610200  -0.011286   0.001591 -35.995000  -1.180020   1.624130 -54.017600  -0.002326  -0.001346 -35.975700  -0.001708  -0.008056   6.160600  -0.712774   6.493490  32.890000 -12.993200  18.862700 -22.148800  -0.792614  19.545200 -13.868800  24.001300  -5.314520 -46.400900  25.979900  55.693500   3.996780  -0.001738  -0.000131  -3.001620  -0.001329  -0.001339   8.823090   0.168924   1.117660   7.219580  -0.002951  -0.001415   5.053700  -0.002121  -0.004878  10.183100   0.195999   1.113270  10.184400  -0.002979   0.002568   6.782770  -0.002595  -0.005000   3.644650   0.062981   1.127660   3.644320  -0.004950  -0.003554   2.427110  -0.003260  -0.002943  16.919700  -0.708980  -2.301590  25.399300  -0.003874   0.006834  16.916000  -0.010040   0.003368   2.506020  22.377100   3.985230   0.545911   0.058137   7.997010   0.237831  -4.675470   8.611320   0.000000   0.000000   0.000000   3.449940  14.622100  -6.563360  -4.702420  10.464000  -5.271070   4.743950  -5.366720   9.012640   0.000000   0.000000  -0.000000
